<svg xmlns="http://www.w3.org/2000/svg" version="1.1" xmlns:xlink="http://www.w3.org/1999/xlink" xmlns:svgjs="http://svgjs.com/svgjs" width="1440" height="2440" preserveAspectRatio="none" viewBox="0 0 1440 2440"><g mask="url(&quot;#SvgjsMask5059&quot;)" fill="none"><rect width="1440" height="2440" x="0" y="0" fill="url(#SvgjsLinearGradient5060)"></rect><path d="M127.5 360C151.99 194.26 10.53 101.04 75.79 0C126.78 -78.96 217.89 0 360 0C540 0 540 0 720 0C900 0 900 0 1080 0C1260 0 1350 -90 1440 0C1530 90 1440 180 1440 360C1440 540 1440 540 1440 720C1440 900 1440 900 1440 1080C1440 1260 1440 1260 1440 1440C1440 1620 1440 1620 1440 1800C1440 1980 1440 1980 1440 2160C1440 2340 1530 2430 1440 2520C1350 2610 1260 2520 1080 2520C930 2520 929.09 2526.78 780 2520C749.09 2518.6 750.38 2510.23 720 2503.64C540.38 2464.66 538.11 2424.44 360 2428.86C208.11 2432.62 211.09 2481.75 60 2520C31.09 2527.32 4.29 2545.71 0 2520C-25.71 2365.71 0 2340 0 2160C0 1980 0 1980 0 1800C0 1620 0 1620 0 1440C0 1260 0 1260 0 1080C0 900 0 900 0 720C0 616.5 -32.49 604.74 0 513C31.26 424.74 114.09 450.76 127.5 360" stroke="rgba(51, 121, 194, 0.58)" stroke-width="2"></path><path d="M720 257.14C656.24 257.14 587.76 307.78 587.76 360C587.76 413.21 656.37 468 720 468C777.41 468 829.83 413.33 829.83 360C829.83 307.9 777.27 257.14 720 257.14" stroke="rgba(51, 121, 194, 0.58)" stroke-width="2"></path><path d="M720 114.29C567.67 114.29 404.08 235.27 404.08 360C404.08 487.12 567.99 618 720 618C857.13 618 982.37 487.4 982.37 360C982.37 235.55 856.81 114.29 720 114.29" stroke="rgba(51, 121, 194, 0.58)" stroke-width="2"></path><path d="M360 124.14C312.64 124.14 312.63 45.76 312.63 0C312.63 -16.31 336.32 0 360 0C480 0 600 -29.2 600 0C600 32.87 456.32 124.14 360 124.14" stroke="rgba(51, 121, 194, 0.58)" stroke-width="2"></path><path d="M1080 255.48C936.42 124.48 786.67 72.82 786.67 0C786.67 -54.92 933.34 0 1080 0C1170 0 1184.96 -36.69 1260 0C1364.96 51.31 1388 72.01 1440 176C1478 252.01 1440 268 1440 360C1440 485.45 1479.53 504.19 1440 610.91C1412.86 684.19 1371.01 662.79 1306.67 720C1191.01 822.85 1195.35 931.03 1080 931.03C959.62 931.03 835.2 828.84 835.2 720C835.2 605.64 962.52 606.84 1080 484.62C1135.55 426.84 1181.25 420.1 1181.25 360C1181.25 305.53 1133.71 304.48 1080 255.48" stroke="rgba(51, 121, 194, 0.58)" stroke-width="2"></path><path d="M285.88 720C285.88 670.46 313.25 623.08 360 623.08C434.31 623.08 528 669.24 528 720C528 772.49 432.95 829.57 360 829.57C311.89 829.57 285.88 773.71 285.88 720" stroke="rgba(51, 121, 194, 0.58)" stroke-width="2"></path><path d="M0 990C41.26 990 129.6 1039.91 129.6 1080C129.6 1116.67 44.99 1143.53 0 1143.53C-19.81 1143.53 0 1111.76 0 1080C0 1035 -23.54 990 0 990" stroke="rgba(51, 121, 194, 0.58)" stroke-width="2"></path><path d="M921.18 1440C921.18 1347.77 1013.38 1240 1080 1240C1137.05 1240 1168.52 1343.63 1168.52 1440C1168.52 1511.13 1133.98 1575 1080 1575C1010.31 1575 921.18 1515.27 921.18 1440" stroke="rgba(51, 121, 194, 0.58)" stroke-width="2"></path><path d="M1344.71 1800C1344.71 1753.04 1408.77 1741.09 1440 1741.09C1456.42 1741.09 1440 1770.55 1440 1800C1440 1947.28 1463.23 2094.55 1440 2094.55C1415.58 2094.55 1344.71 1929.77 1344.71 1800" stroke="rgba(51, 121, 194, 0.58)" stroke-width="2"></path><path d="M0 1872C107 1851.94 173.86 1995.13 360 2092.5C449.15 2139.13 550.59 2132.38 550.59 2160C550.59 2186.63 456.67 2195.95 360 2201.01C181.38 2210.35 166.67 2207.79 0 2188.8C-13.33 2187.28 0 2174.4 0 2160C0 2016 -73 1885.69 0 1872" stroke="rgba(51, 121, 194, 0.58)" stroke-width="2"></path></g><defs><mask id="SvgjsMask5059"><rect width="1440" height="2440" fill="#ffffff"></rect></mask><linearGradient x1="50%" y1="100%" x2="50%" y2="0%" gradientUnits="userSpaceOnUse" id="SvgjsLinearGradient5060"><stop stop-color="rgba(36, 36, 44, 1)" offset="0.12"></stop><stop stop-color="rgba(30, 108, 187, 1)" offset="1"></stop></linearGradient></defs></svg>